<svg width="154" height="153" viewBox="0 0 154 153" fill="none" xmlns="http://www.w3.org/2000/svg">
    <path
        d="M103.42 109.728L67.2322 138.855M103.42 109.728L118.425 68.2431M103.42 109.728L43.4297 68.2431M103.42 109.728L146.43 68.2431L133.872 39.1156M133.872 39.1156L87.5324 39.1156M133.872 39.1156L118.425 68.2431M22.2166 105.756L16.429 49.7785L57.9636 16.1664M22.2166 105.756L67.2322 138.855M22.2166 105.756L43.4297 68.2431M57.9636 16.1664L87.5324 39.1156M57.9636 16.1664L43.4297 68.2431M67.2322 138.855L43.4297 68.2431M87.5324 39.1156L118.425 68.2431"
        stroke="#111111" stroke-width="2" />
    <path fill-rule="evenodd" clip-rule="evenodd"
        d="M110.76 21.6598L103.42 15.305L105.73 12.6357L113.071 18.9905L110.76 21.6598Z" fill="#111111" />
    <path fill-rule="evenodd" clip-rule="evenodd"
        d="M37.4985 125.813L30.1579 119.458L32.4688 116.789L39.8094 123.144L37.4985 125.813Z" fill="#111111" />
    <path fill-rule="evenodd" clip-rule="evenodd"
        d="M26.9067 138.17L19.5661 131.815L21.877 129.146L29.2176 135.501L26.9067 138.17Z" fill="#111111" />
    <path fill-rule="evenodd" clip-rule="evenodd"
        d="M122.235 9.30266L114.894 2.94782L117.205 0.278503L124.546 6.63334L122.235 9.30266Z" fill="#111111" />
    <path fill-rule="evenodd" clip-rule="evenodd"
        d="M48.9731 113.456L41.6325 107.101L43.9434 104.432L51.284 110.787L48.9731 113.456Z" fill="#111111" />
    <circle cx="129.458" cy="126.94" r="3.8546" stroke="#111111" stroke-width="2" />
    <circle cx="125.542" cy="60.1228" r="26.8443" fill="#9D70F9" />
    <path d="M112.961 57.1003V49.7609H111.76L112.243 47.9587H114.763V57.1003H112.961Z" fill="#111111" />
    <path
        d="M121.079 57.2701C120.552 57.2701 120.071 57.1482 119.636 56.9044C119.201 56.6563 118.822 56.3146 118.5 55.8792C118.182 55.4439 117.936 54.9411 117.762 54.3709C117.588 53.7963 117.501 53.1825 117.501 52.5295C117.501 51.8765 117.588 51.2649 117.762 50.6947C117.936 50.12 118.182 49.6151 118.5 49.1798C118.822 48.7445 119.201 48.4049 119.636 48.1611C120.071 47.913 120.552 47.7889 121.079 47.7889C121.606 47.7889 122.087 47.913 122.522 48.1611C122.957 48.4049 123.332 48.7445 123.645 49.1798C123.963 49.6151 124.209 50.12 124.383 50.6947C124.557 51.2649 124.644 51.8765 124.644 52.5295C124.644 53.1825 124.557 53.7963 124.383 54.3709C124.209 54.9411 123.963 55.4439 123.645 55.8792C123.332 56.3146 122.957 56.6563 122.522 56.9044C122.087 57.1482 121.606 57.2701 121.079 57.2701ZM121.079 55.4679C121.51 55.4679 121.865 55.3286 122.143 55.05C122.422 54.7714 122.627 54.4079 122.757 53.9595C122.892 53.5111 122.96 53.0345 122.96 52.5295C122.96 51.9941 122.888 51.5043 122.744 51.0603C122.605 50.6163 122.396 50.2615 122.117 49.996C121.839 49.7261 121.493 49.5911 121.079 49.5911C120.753 49.5911 120.47 49.6717 120.23 49.8327C119.995 49.9938 119.799 50.2136 119.643 50.4922C119.49 50.7708 119.375 51.0864 119.296 51.439C119.222 51.7873 119.185 52.1508 119.185 52.5295C119.185 53.0345 119.253 53.5111 119.388 53.9595C119.527 54.4035 119.736 54.767 120.015 55.05C120.298 55.3286 120.652 55.4679 121.079 55.4679Z"
        fill="#111111" />
    <path d="M128.071 57.1003V49.7609H126.87L127.353 47.9587H129.874V57.1003H128.071Z" fill="#111111" />
    <path
        d="M136.189 57.2701C135.662 57.2701 135.181 57.1482 134.746 56.9044C134.311 56.6563 133.932 56.3146 133.61 55.8792C133.292 55.4439 133.046 54.9411 132.872 54.3709C132.698 53.7963 132.611 53.1825 132.611 52.5295C132.611 51.8765 132.698 51.2649 132.872 50.6947C133.046 50.12 133.292 49.6151 133.61 49.1798C133.932 48.7445 134.311 48.4049 134.746 48.1611C135.181 47.913 135.662 47.7889 136.189 47.7889C136.716 47.7889 137.197 47.913 137.632 48.1611C138.068 48.4049 138.442 48.7445 138.755 49.1798C139.073 49.6151 139.319 50.12 139.493 50.6947C139.667 51.2649 139.754 51.8765 139.754 52.5295C139.754 53.1825 139.667 53.7963 139.493 54.3709C139.319 54.9411 139.073 55.4439 138.755 55.8792C138.442 56.3146 138.068 56.6563 137.632 56.9044C137.197 57.1482 136.716 57.2701 136.189 57.2701ZM136.189 55.4679C136.62 55.4679 136.975 55.3286 137.254 55.05C137.532 54.7714 137.737 54.4079 137.867 53.9595C138.002 53.5111 138.07 53.0345 138.07 52.5295C138.07 51.9941 137.998 51.5043 137.854 51.0603C137.715 50.6163 137.506 50.2615 137.227 49.996C136.949 49.7261 136.603 49.5911 136.189 49.5911C135.863 49.5911 135.58 49.6717 135.34 49.8327C135.105 49.9938 134.909 50.2136 134.753 50.4922C134.6 50.7708 134.485 51.0864 134.407 51.439C134.333 51.7873 134.296 52.1508 134.296 52.5295C134.296 53.0345 134.363 53.5111 134.498 53.9595C134.637 54.4035 134.846 54.767 135.125 55.05C135.408 55.3286 135.763 55.4679 136.189 55.4679Z"
        fill="#111111" />
    <path d="M112.961 73.0618V65.7224H111.76L112.243 63.9202H114.763V73.0618H112.961Z" fill="#111111" />
    <path
        d="M121.079 73.2315C120.552 73.2315 120.071 73.1097 119.636 72.8659C119.201 72.6178 118.822 72.276 118.5 71.8407C118.182 71.4054 117.936 70.9026 117.762 70.3324C117.588 69.7577 117.501 69.144 117.501 68.491C117.501 67.838 117.588 67.2264 117.762 66.6561C117.936 66.0815 118.182 65.5766 118.5 65.1413C118.822 64.7059 119.201 64.3664 119.636 64.1226C120.071 63.8745 120.552 63.7504 121.079 63.7504C121.606 63.7504 122.087 63.8745 122.522 64.1226C122.957 64.3664 123.332 64.7059 123.645 65.1413C123.963 65.5766 124.209 66.0815 124.383 66.6561C124.557 67.2264 124.644 67.838 124.644 68.491C124.644 69.144 124.557 69.7577 124.383 70.3324C124.209 70.9026 123.963 71.4054 123.645 71.8407C123.332 72.276 122.957 72.6178 122.522 72.8659C122.087 73.1097 121.606 73.2315 121.079 73.2315ZM121.079 71.4293C121.51 71.4293 121.865 71.29 122.143 71.0114C122.422 70.7328 122.627 70.3694 122.757 69.921C122.892 69.4726 122.96 68.9959 122.96 68.491C122.96 67.9556 122.888 67.4658 122.744 67.0218C122.605 66.5778 122.396 66.223 122.117 65.9575C121.839 65.6876 121.493 65.5526 121.079 65.5526C120.753 65.5526 120.47 65.6332 120.23 65.7942C119.995 65.9553 119.799 66.1751 119.643 66.4537C119.49 66.7323 119.375 67.0479 119.296 67.4005C119.222 67.7488 119.185 68.1123 119.185 68.491C119.185 68.9959 119.253 69.4726 119.388 69.921C119.527 70.365 119.736 70.7285 120.015 71.0114C120.298 71.29 120.652 71.4293 121.079 71.4293Z"
        fill="#111111" />
    <path d="M128.071 73.0618V65.7224H126.87L127.353 63.9202H129.874V73.0618H128.071Z" fill="#111111" />
    <path
        d="M136.189 73.2315C135.662 73.2315 135.181 73.1097 134.746 72.8659C134.311 72.6178 133.932 72.276 133.61 71.8407C133.292 71.4054 133.046 70.9026 132.872 70.3324C132.698 69.7577 132.611 69.144 132.611 68.491C132.611 67.838 132.698 67.2264 132.872 66.6561C133.046 66.0815 133.292 65.5766 133.61 65.1413C133.932 64.7059 134.311 64.3664 134.746 64.1226C135.181 63.8745 135.662 63.7504 136.189 63.7504C136.716 63.7504 137.197 63.8745 137.632 64.1226C138.068 64.3664 138.442 64.7059 138.755 65.1413C139.073 65.5766 139.319 66.0815 139.493 66.6561C139.667 67.2264 139.754 67.838 139.754 68.491C139.754 69.144 139.667 69.7577 139.493 70.3324C139.319 70.9026 139.073 71.4054 138.755 71.8407C138.442 72.276 138.068 72.6178 137.632 72.8659C137.197 73.1097 136.716 73.2315 136.189 73.2315ZM136.189 71.4293C136.62 71.4293 136.975 71.29 137.254 71.0114C137.532 70.7328 137.737 70.3694 137.867 69.921C138.002 69.4726 138.07 68.9959 138.07 68.491C138.07 67.9556 137.998 67.4658 137.854 67.0218C137.715 66.5778 137.506 66.223 137.227 65.9575C136.949 65.6876 136.603 65.5526 136.189 65.5526C135.863 65.5526 135.58 65.6332 135.34 65.7942C135.105 65.9553 134.909 66.1751 134.753 66.4537C134.6 66.7323 134.485 67.0479 134.407 67.4005C134.333 67.7488 134.296 68.1123 134.296 68.491C134.296 68.9959 134.363 69.4726 134.498 69.921C134.637 70.365 134.846 70.7285 135.125 71.0114C135.408 71.29 135.763 71.4293 136.189 71.4293Z"
        fill="#111111" />
    <circle cx="29.772" cy="60.1228" r="26.8443" fill="#FF5656" />
    <path d="M17.1917 56.9305V49.5911H15.9902L16.4734 47.7889H18.9939V56.9305H17.1917Z" fill="#111111" />
    <path d="M23.0633 56.9305V49.5911H21.8619L22.3451 47.7889H24.8655V56.9305H23.0633Z" fill="#111111" />
    <path d="M28.935 56.9305V49.5911H27.7335L28.2167 47.7889H30.7372V56.9305H28.935Z" fill="#111111" />
    <path d="M34.8066 56.9305V49.5911H33.6051L34.0883 47.7889H36.6088V56.9305H34.8066Z" fill="#111111" />
    <path d="M40.6782 56.9305V49.5911H39.4767L39.9599 47.7889H42.4804V56.9305H40.6782Z" fill="#111111" />
    <path d="M17.1917 72.892V65.5526H15.9902L16.4734 63.7504H18.9939V72.892H17.1917Z" fill="#111111" />
    <path d="M23.0633 72.892V65.5526H21.8619L22.3451 63.7504H24.8655V72.892H23.0633Z" fill="#111111" />
    <path d="M28.935 72.892V65.5526H27.7335L28.2167 63.7504H30.7372V72.892H28.935Z" fill="#111111" />
    <path d="M34.8066 72.892V65.5526H33.6051L34.0883 63.7504H36.6088V72.892H34.8066Z" fill="#111111" />
    <path d="M40.6782 72.892V65.5526H39.4767L39.9599 63.7504H42.4804V72.892H40.6782Z" fill="#111111" />
    <path d="M79.0229 60.8484V55.2451H63.8691V47.5881H79.0229V41.9848L91.439 51.4166L79.0229 60.8484Z" fill="#111111" />
    <path d="M76.2857 79.712V74.1088H91.4395V66.4517H76.2857V60.8484L63.8696 70.2802L76.2857 79.712Z" fill="#111111" />
</svg>